# File created by Blade
# Date/Time:  Wed Jan 21 17:57:11 2015
# Frame Rate: 120.000 fps
#------------------------------------------------------
:FULLY-SPECIFIED
:DEGREES
2042
root 17.597256 35.524203 -23.866916 -175.973485 0.702561 -178.206387
Spine -16.669646 1.171291 -0.060091
Head 135.804858 1.411541 181.779691
LeftShoulder -8.367190 -23.881047 17.871850
LeftArm 0.536764 -3.595176 -2.470646
LeftForeArm 15.100215 -0.000000 -3.479576
LeftHand -11.284043 -0.000000 -0.633421
LeftHandThumb1 -26.253704 0.000000 33.147579
RightShoulder -8.966875 -8.011156 -11.317297
RightArm -4.613241 46.820198 7.156055
RightForeArm -37.719889 -0.000000 4.751048
RightHand -8.366291 -0.000000 8.408151
RightHandThumb1 -24.326973 -0.000000 -32.862282
LeftUpLeg 7.547704 10.126445 3.711884
LeftLeg -6.122243 -0.000000 0.000000
LeftFoot -20.408969 25.261903 -14.311535
LeftToeBase 22.768081 -0.000000 -0.000000
RightUpLeg 5.327355 -6.350945 0.321545
RightLeg -4.247438 -0.000000 0.000000
RightFoot -20.480740 -21.737563 18.089393
RightToeBase 23.219732 -0.000000 -0.000000
2043
root 17.590173 35.524258 -23.870298 -175.996817 0.663365 -178.230634
Spine -16.624933 1.153204 -0.073427
Head 135.822989 1.419825 181.786335
LeftShoulder -8.368958 -23.841795 17.862599
LeftArm 0.557883 -3.621604 -2.507862
LeftForeArm 14.995006 0.000000 -3.488279
LeftHand -11.304238 -0.000000 -0.626162
LeftHandThumb1 -26.253704 0.000000 33.147579
RightShoulder -8.939598 -8.018934 -11.334262
RightArm -4.593723 46.811709 7.212802
RightForeArm -37.669683 -0.000000 4.759222
RightHand -8.336600 -0.000000 8.480334
RightHandThumb1 -24.326973 -0.000000 -32.862282
LeftUpLeg 7.584989 10.155503 3.694103
LeftLeg -6.152235 -0.000000 0.000000
LeftFoot -20.376233 25.167989 -14.329343
LeftToeBase 22.787971 -0.000000 -0.000000
RightUpLeg 5.359052 -6.396074 0.294607
RightLeg -4.250244 -0.000000 0.000000
RightFoot -20.495661 -21.779257 18.059093
RightToeBase 23.214990 -0.000000 -0.000000
2044
root 17.581572 35.524942 -23.871818 -176.020226 0.613480 -178.250591
Spine -16.574434 1.142347 -0.075113
Head 135.838385 1.464408 181.756344
LeftShoulder -8.343103 -23.845604 17.837305
LeftArm 0.560042 -3.623740 -2.537493
LeftForeArm 14.902812 0.000000 -3.487215
LeftHand -11.303386 0.000000 -0.616164
LeftHandThumb1 -26.253704 0.000000 33.147579
RightShoulder -8.920692 -8.034878 -11.352890
RightArm -4.560939 46.785289 7.260182
RightForeArm -37.607812 -0.000000 4.707369
RightHand -8.276998 -0.000000 8.455421
RightHandThumb1 -24.326973 -0.000000 -32.862282
LeftUpLeg 7.605687 10.155049 3.675016
LeftLeg -6.155350 -0.000000 0.000000
LeftFoot -20.332925 25.109788 -14.304304
LeftToeBase 22.761265 -0.000000 -0.000000
RightUpLeg 5.387288 -6.408166 0.266214
RightLeg -4.247413 -0.000000 0.000000
RightFoot -20.507159 -21.840085 18.054460
RightToeBase 23.240666 -0.000000 -0.000000
2045
root 17.571762 35.525161 -23.872766 -176.041448 0.570811 -178.267349
Spine -16.524035 1.128959 -0.066523
Head 135.877926 1.372791 181.825012
LeftShoulder -8.346080 -23.820991 17.822367
LeftArm 0.596179 -3.645403 -2.578588
LeftForeArm 14.786969 -0.000000 -3.506641
LeftHand -11.296982 -0.000000 -0.595497
LeftHandThumb1 -26.253704 0.000000 33.147579
RightShoulder -8.882774 -8.030597 -11.387618
RightArm -4.575784 46.803869 7.293212
RightForeArm -37.588472 -0.000000 4.752537
RightHand -8.291338 -0.000000 8.546743
RightHandThumb1 -24.326973 -0.000000 -32.862282
LeftUpLeg 7.628134 10.149657 3.653345
LeftLeg -6.168234 -0.000000 0.000000
LeftFoot -20.336772 25.052296 -14.347086
LeftToeBase 22.828044 -0.000000 -0.000000
RightUpLeg 5.408572 -6.427280 0.239301
RightLeg -4.238041 -0.000000 0.000000
RightFoot -20.513415 -21.875798 18.022585
RightToeBase 23.269952 -0.000000 -0.000000
2046
root 17.563478 35.525752 -23.875053 -176.075516 0.521178 -178.280468
Spine -16.465010 1.113607 -0.055274
Head 135.870325 1.382134 181.786913
LeftShoulder -8.332061 -23.784166 17.789177
LeftArm 0.636309 -3.636854 -2.596839
LeftForeArm 14.658059 -0.000000 -3.524042
LeftHand -11.286280 -0.000000 -0.634142
LeftHandThumb1 -26.253704 0.000000 33.147579
RightShoulder -8.854891 -8.015496 -11.413164
RightArm -4.544887 46.771908 7.324447
RightForeArm -37.638707 0.000000 4.687555
RightHand -8.157956 0.000000 8.543251
RightHandThumb1 -24.326973 -0.000000 -32.862282
LeftUpLeg 7.661193 10.141130 3.641192
LeftLeg -6.177761 -0.000000 0.000000
LeftFoot -20.323754 25.008952 -14.358656
LeftToeBase 22.750165 -0.000000 -0.000000
RightUpLeg 5.447944 -6.473396 0.216026
RightLeg -4.233989 -0.000000 0.000000
RightFoot -20.510164 -21.893418 18.026297
RightToeBase 23.219286 -0.000000 -0.000000
2047
root 17.554862 35.525424 -23.877708 -176.105203 0.472193 -178.294040
Spine -16.412219 1.104334 -0.050001
Head 135.857455 1.322106 181.829104
LeftShoulder -8.301923 -23.789135 17.769629
LeftArm 0.657804 -3.637421 -2.616088
LeftForeArm 14.575942 -0.000000 -3.527028
LeftHand -11.282245 -0.000000 -0.633577
LeftHandThumb1 -26.253704 0.000000 33.147579
RightShoulder -8.839974 -8.032748 -11.400640
RightArm -4.463511 46.732303 7.320360
RightForeArm -37.489955 -0.000000 4.576729
RightHand -8.159106 -0.000000 8.525950
RightHandThumb1 -24.326973 -0.000000 -32.862282
LeftUpLeg 7.694494 10.116699 3.625226
LeftLeg -6.192929 -0.000000 0.000000
LeftFoot -20.306496 24.986201 -14.331817
LeftToeBase 22.765535 -0.000000 -0.000000
RightUpLeg 5.481090 -6.505130 0.193622
RightLeg -4.226298 -0.000000 0.000000
RightFoot -20.521372 -21.931393 17.988009
RightToeBase 23.265952 -0.000000 -0.000000
2048
root 17.545923 35.524897 -23.881116 -176.148610 0.427088 -178.305986
Spine -16.344200 1.093372 -0.045622
Head 135.836501 1.576811 181.632793
LeftShoulder -8.292347 -23.742807 17.755510
LeftArm 0.705947 -3.683882 -2.643042
LeftForeArm 14.490932 0.000000 -3.520633
LeftHand -11.271995 -0.000000 -0.626946
LeftHandThumb1 -26.253704 0.000000 33.147579
RightShoulder -8.819199 -8.066739 -11.389416
RightArm -4.440405 46.852954 7.299562
RightForeArm -37.513446 -0.000000 4.576056
RightHand -8.283466 -0.000000 8.531120
RightHandThumb1 -24.326973 -0.000000 -32.862282
LeftUpLeg 7.750212 10.070480 3.611037
LeftLeg -6.219861 -0.000000 0.000000
LeftFoot -20.295031 24.974540 -14.354550
LeftToeBase 22.762465 -0.000000 -0.000000
RightUpLeg 5.533427 -6.513999 0.166966
RightLeg -4.218863 -0.000000 0.000000
RightFoot -20.532354 -21.974906 18.050730
RightToeBase 23.151200 -0.000000 -0.000000
2049
root 17.537774 35.523928 -23.884891 -176.193557 0.387001 -178.311945
Spine -16.273606 1.089447 -0.027058
Head 135.832480 1.360629 181.778182
LeftShoulder -8.263167 -23.744605 17.736500
LeftArm 0.721354 -3.694357 -2.661040
LeftForeArm 14.462735 -0.000000 -3.495717
LeftHand -11.278712 -0.000000 -0.627573
LeftHandThumb1 -26.253704 0.000000 33.147579
RightShoulder -8.813996 -8.101537 -11.386892
RightArm -4.383397 46.898899 7.297887
RightForeArm -37.533454 -0.000000 4.549862
RightHand -8.158340 -0.000000 8.597908
RightHandThumb1 -24.326973 -0.000000 -32.862282
LeftUpLeg 7.805675 10.026614 3.603955
LeftLeg -6.241455 -0.000000 0.000000
LeftFoot -20.292096 24.975207 -14.348516
LeftToeBase 22.736277 -0.000000 -0.000000
RightUpLeg 5.588717 -6.527448 0.150024
RightLeg -4.220262 -0.000000 0.000000
RightFoot -20.523233 -21.949772 18.106537
RightToeBase 22.986471 -0.000000 -0.000000
2050
root 17.528746 35.523031 -23.888725 -176.235757 0.341535 -178.321102
Spine -16.211123 1.081664 -0.014183
Head 135.792003 1.559823 181.595629
LeftShoulder -8.246339 -23.715007 17.724317
LeftArm 0.777261 -3.704802 -2.696134
LeftForeArm 14.451547 -0.000000 -3.503439
LeftHand -11.303587 0.000000 -0.616716
LeftHandThumb1 -26.253704 0.000000 33.147579
RightShoulder -8.809661 -8.112100 -11.385092
RightArm -4.316035 46.819200 7.307087
RightForeArm -37.444538 -0.000000 4.543038
RightHand -8.207624 0.000000 8.592656
RightHandThumb1 -24.326973 -0.000000 -32.862282
LeftUpLeg 7.859707 9.972834 3.590953
LeftLeg -6.268118 -0.000000 0.000000
LeftFoot -20.296912 24.975999 -14.363116
LeftToeBase 22.745000 -0.000000 -0.000000
RightUpLeg 5.643260 -6.555928 0.127110
RightLeg -4.223997 -0.000000 0.000000
RightFoot -20.523830 -21.976493 18.071640
RightToeBase 22.985059 -0.000000 -0.000000
2051
root 17.519700 35.522021 -23.892845 -176.280598 0.312993 -178.327564
Spine -16.143373 1.078859 0.006741
Head 135.770519 1.512489 181.590661
LeftShoulder -8.252829 -23.685327 17.715962
LeftArm 0.845475 -3.694849 -2.732420
LeftForeArm 14.413271 -0.000000 -3.508727
LeftHand -11.330039 0.000000 -0.542263
LeftHandThumb1 -26.253704 0.000000 33.147579
RightShoulder -8.777634 -8.129843 -11.404474
RightArm -4.304848 46.827494 7.309532
RightForeArm -37.494982 -0.000000 4.587762
RightHand -8.204767 -0.000000 8.604199
RightHandThumb1 -24.326973 -0.000000 -32.862282
LeftUpLeg 7.927244 9.930831 3.579745
LeftLeg -6.307353 -0.000000 0.000000
LeftFoot -20.283261 24.990726 -14.341319
LeftToeBase 22.739448 -0.000000 -0.000000
RightUpLeg 5.696400 -6.530187 0.110877
RightLeg -4.228247 -0.000000 0.000000
RightFoot -20.534289 -22.071249 18.066827
RightToeBase 23.035939 -0.000000 -0.000000
2052
root 17.510235 35.520644 -23.897460 -176.327043 0.285274 -178.334500
Spine -16.072411 1.082433 0.030079
Head 135.755855 1.294806 181.724543
LeftShoulder -8.258636 -23.671746 17.694463
LeftArm 0.931949 -3.684105 -2.748988
LeftForeArm 14.393578 -0.000000 -3.513220
LeftHand -11.330613 -0.000000 -0.528052
LeftHandThumb1 -26.253704 0.000000 33.147579
RightShoulder -8.761289 -8.104470 -11.421479
RightArm -4.264857 46.769014 7.296627
RightForeArm -37.486810 -0.000000 4.590249
RightHand -8.275228 -0.000000 8.469872
RightHandThumb1 -24.326973 -0.000000 -32.862282
LeftUpLeg 8.004400 9.886138 3.568240
LeftLeg -6.360024 -0.000000 0.000000
LeftFoot -20.267131 25.002701 -14.339737
LeftToeBase 22.725004 -0.000000 -0.000000
RightUpLeg 5.759037 -6.520570 0.088206
RightLeg -4.242663 -0.000000 0.000000
RightFoot -20.531021 -22.112799 18.010781
RightToeBase 23.129633 -0.000000 -0.000000
2053
root 17.502559 35.518899 -23.902278 -176.367688 0.252865 -178.337947
Spine -16.016387 1.074815 0.045569
Head 135.723455 1.507435 181.556799
LeftShoulder -8.265226 -23.644892 17.705182
LeftArm 1.019108 -3.644057 -2.791024
LeftForeArm 14.383034 -0.000000 -3.521766
LeftHand -11.326113 -0.000000 -0.535697
LeftHandThumb1 -26.253704 0.000000 33.147579
RightShoulder -8.773884 -8.171772 -11.427498
RightArm -4.125047 46.796636 7.377893
RightForeArm -37.511230 -0.000000 4.593703
RightHand -8.290782 -0.000000 8.362958
RightHandThumb1 -24.326973 -0.000000 -32.862282
LeftUpLeg 8.074922 9.841199 3.563961
LeftLeg -6.408636 -0.000000 0.000000
LeftFoot -20.243030 25.008648 -14.316989
LeftToeBase 22.734457 -0.000000 -0.000000
RightUpLeg 5.823972 -6.498633 0.074977
RightLeg -4.266881 -0.000000 0.000000
RightFoot -20.532985 -22.160966 17.957966
RightToeBase 22.973710 -0.000000 -0.000000
2054
root 17.492788 35.517319 -23.906325 -176.401616 0.229709 -178.349760
Spine -15.961081 1.080084 0.060334
Head 135.724943 1.338964 181.680218
LeftShoulder -8.275857 -23.614182 17.706299
LeftArm 1.094682 -3.623462 -2.829078
LeftForeArm 14.394313 -0.000000 -3.497869
LeftHand -11.309066 0.000000 -0.566104
LeftHandThumb1 -26.253704 0.000000 33.147579
RightShoulder -8.787464 -8.203749 -11.442099
RightArm -4.025123 46.814176 7.422024
RightForeArm -37.564993 -0.000000 4.601438
RightHand -8.314967 -0.000000 8.359465
RightHandThumb1 -24.326973 -0.000000 -32.862282
LeftUpLeg 8.137545 9.806330 3.543289
LeftLeg -6.457708 -0.000000 0.000000
LeftFoot -20.216866 25.030834 -14.285698
LeftToeBase 22.714551 -0.000000 -0.000000
RightUpLeg 5.882029 -6.435576 0.051979
RightLeg -4.299395 -0.000000 0.000000
RightFoot -20.533385 -22.278200 17.944234
RightToeBase 23.105615 -0.000000 -0.000000
